<svg width="107" height="48" viewBox="0 0 107 48" fill="none" xmlns="http://www.w3.org/2000/svg">
<g clip-path="url(#clip0_26044_17261)">
<path fill-rule="evenodd" clip-rule="evenodd" d="M85.6742 25.5092C83.9802 27.7938 81.1006 28.6131 79.2399 27.3388C77.3775 26.0644 77.2448 23.1816 78.9372 20.8971C80.6329 18.6141 83.5108 17.7947 85.3732 19.0707C87.2339 20.3418 87.3683 23.2262 85.6742 25.5092Z" fill="#111183"/>
<path fill-rule="evenodd" clip-rule="evenodd" d="M67.943 0.587079C67.943 0.587079 66.0194 0.917994 66.3936 3.06416C66.4514 3.39508 67.3239 9.38813 67.3239 9.38813C67.3239 9.38813 65.754 9.59177 65.1485 10.4668C64.5447 11.3418 64.6655 12.2964 64.6655 12.2964C64.6655 12.2964 63.9273 13.1857 64.0328 13.9589C64.1365 14.7321 65.271 15.7614 65.271 15.7614C65.271 15.7614 65.8493 16.6476 66.4803 16.9848C67.1096 17.3221 67.4243 17.3603 67.4243 17.3603C67.4243 17.3603 69.6728 19.1883 70.7954 20.6997C71.9196 22.2095 74.2345 25.7636 74.6869 27.2177C75.1393 28.6718 75.5407 32.2944 75.3554 34.1765C74.5764 42.0802 72.5677 44.3632 72.219 44.9121C71.7206 45.6933 71.8346 46.5587 72.338 46.9517C72.6918 47.2285 73.2514 47.3383 73.6358 47.2683C74.1648 47.1728 74.6376 46.9278 74.8468 46.5524C75.107 46.083 75.09 45.2812 75.09 44.8501C75.09 44.5557 76.9354 38.1856 78.2315 36.8349C79.5292 35.4826 80.2708 44.9551 80.3491 45.5103C80.4698 46.3758 80.9427 47.1776 81.9904 47.1792C82.7252 47.1808 83.431 46.8292 83.5416 46.3551C83.6776 45.7919 83.4293 45.348 82.9531 44.8532C82.5602 44.4444 80.2317 36.0474 83.0704 32.1433C87.5624 25.9673 95.5734 25.4772 95.5734 25.4772C95.5734 25.4772 96.2197 25.8098 98.407 25.8654C100.234 25.9132 101.734 27.2511 101.734 27.2511C101.734 27.2511 102.542 27.9862 103.112 27.6409C103.965 27.1223 101.861 25.8018 101.865 25.8002C102.457 25.6682 103.906 26.2791 103.906 26.2791C103.906 26.2791 105.433 26.855 105.646 26.0627C105.794 25.5218 105.28 25.2179 104.654 24.9427C103.358 24.37 102.341 24.2793 102.368 24.2618C102.889 23.9468 104.673 24.4638 105.209 24.607C105.828 24.7709 106.904 24.5243 106.472 23.7049C106.212 23.2118 103.664 22.7233 103.664 22.7233C103.664 22.7233 102.185 22.3749 100.108 22.3749C98.919 22.3749 98.2318 22.5563 97.1824 22.4624C96.1007 22.3638 95.2009 21.834 94.4815 21.5747C93.762 21.317 93.0272 20.9908 92.2839 20.9797C91.5424 20.9685 90.1664 21.4124 91.078 22.254C91.5169 22.6597 92.5017 22.5611 93.0867 22.7281C93.6718 22.8936 94.1311 23.6127 94.1311 23.6127C94.1311 23.6127 90.7158 24.5959 83.846 27.8557C82.7371 28.3807 80.3474 29.1316 78.8795 28.4714C77.4117 27.8111 76.7228 26.6418 75.1989 24.1202C73.6766 21.5985 72.2326 16.6698 72.2581 16.6476C75.0543 11.4882 72.2768 10.6911 72.2768 10.6911C72.2768 10.6911 74.7618 7.59196 75.8775 6.1983C76.5596 5.38534 77.9866 3.70372 76.4711 2.73484C75.0084 2.02051 74.0797 3.3553 73.3347 4.28441C72.4044 5.4442 70.1048 9.21949 70.1048 9.21949L69.9228 2.77621C69.9279 2.77461 70.0521 0.396167 67.943 0.587079Z" fill="#111183"/>
<path fill-rule="evenodd" clip-rule="evenodd" d="M56.2035 24.226C54.8667 24.2037 53.5315 24.3469 52.2338 24.6524C51.2302 24.8847 50.2931 25.3238 49.4886 25.9363C48.9035 26.3595 48.3337 27.0483 48.1228 27.7197C47.917 28.3784 47.8336 29.4172 47.8541 30.1013V30.9764H55.0776V29.0752C55.0742 28.5836 55.081 28.092 55.4178 27.7118C55.9603 27.2917 57.0404 27.2997 57.5982 27.6863C58.5779 28.6329 57.1509 30.3448 56.6066 30.9827C54.1863 33.6475 50.4921 37.111 47.8592 39.639L47.8541 42.4677H64.8303V39.009H57.0302L59.8519 36.5399L61.7806 34.7755C62.5392 34.093 63.5155 33.1098 64.1533 32.3223C64.4901 31.9086 64.8235 31.3534 65.0497 30.8793C65.6484 29.6416 65.6926 28.1684 64.8524 27.0404C63.7842 25.6069 61.6803 24.7558 59.8128 24.4901C58.6222 24.304 57.4146 24.2165 56.2035 24.226ZM68.6283 40.0065C68.6283 43.6068 65.5225 46.5325 61.6922 46.5325L45.6685 46.5055L45.694 20.4666C57.6935 20.4173 61.6905 20.4555 61.6905 20.4555C65.5208 20.4555 68.6266 23.3733 68.6266 26.9736V40.0065H68.6283Z" fill="#FF0001"/>
<path fill-rule="evenodd" clip-rule="evenodd" d="M45.7703 46.5308V20.4395H7.8294C3.99908 20.4395 0.89502 23.3604 0.89502 26.9623V40.0095C0.89502 43.6114 4.00078 46.5308 7.8294 46.5308H45.7703ZM42.6901 28.2287L41.2086 36.7338C40.9756 38.0797 40.7783 38.9993 40.6201 39.4893C40.4603 39.9793 40.1983 40.3834 39.8309 40.7032C39.4636 41.0214 38.9516 41.2568 38.2985 41.408C37.6437 41.5591 36.5976 41.6339 35.1604 41.6339H32.0172V39.755C32.8234 39.755 33.3422 39.7279 33.5735 39.6707C33.8048 39.615 33.9205 39.4893 33.9205 39.2952C33.9205 39.2013 33.8133 38.7893 33.599 38.0638L30.7603 28.2303H35.4666L37.1708 36.1674L38.0025 28.2303H42.6901V28.2287ZM29.9779 28.2287V39.9841H24.7036L24.7937 39.0072C24.4331 39.4034 23.9909 39.7009 23.4653 39.8998C22.9398 40.097 22.3343 40.1973 21.6488 40.1973C20.8698 40.1973 20.2252 40.1034 19.7116 39.9141C19.1979 39.7248 18.8203 39.475 18.5754 39.16C18.3322 38.8466 18.1808 38.5204 18.1196 38.1816C18.06 37.8411 18.0294 37.1681 18.0294 36.1563V28.2287H23.2136V36.2279C23.2136 37.1427 23.2544 37.6868 23.3361 37.8586C23.4177 38.0288 23.6371 38.1163 23.9977 38.1163C24.3821 38.1163 24.6117 38.0272 24.6832 37.8506C24.7563 37.674 24.792 37.1029 24.792 36.142V28.2303H29.9779V28.2287ZM9.63911 25.6418V29.0369C10.066 28.6932 10.5423 28.4371 11.0695 28.2684C11.5951 28.0998 12.1666 28.0155 12.7823 28.0155C13.4932 28.0155 14.1089 28.0934 14.6294 28.2462C15.1516 28.4005 15.5496 28.6153 15.8234 28.8937C16.0972 29.1705 16.2622 29.4426 16.3184 29.7082C16.3728 29.9739 16.4017 30.5419 16.4017 31.4089V36.7068C16.4017 37.569 16.3184 38.2118 16.1517 38.6334C15.985 39.0566 15.5938 39.4225 14.9781 39.7327C14.3624 40.043 13.631 40.1973 12.784 40.1973C12.1768 40.1973 11.6104 40.105 11.0831 39.922C10.5576 39.7391 10.0762 39.4639 9.64081 39.0963L9.30574 39.9841H4.45491V25.6418H9.63911ZM11.2175 31.568C11.2175 30.9587 11.1614 30.5626 11.0508 30.3764C10.9386 30.1903 10.7208 30.098 10.396 30.098C10.0796 30.098 9.87382 30.1792 9.78028 30.3414C9.68503 30.5037 9.63911 30.9126 9.63911 31.5696V36.6368C9.63911 37.2684 9.69183 37.674 9.79899 37.8506C9.90614 38.0272 10.117 38.1163 10.4334 38.1163C10.7583 38.1163 10.9709 38.0241 11.0678 37.8411C11.1665 37.6581 11.2158 37.219 11.2158 36.5222V31.568H11.2175Z" fill="#111183"/>
</g>
<defs>
<clipPath id="clip0_26044_17261">
<rect width="107" height="48" fill="white"/>
</clipPath>
</defs>
</svg>
